<?xml version="1.0" encoding="UTF-8" standalone="no"?>
<!DOCTYPE svg PUBLIC "-//W3C//DTD SVG 1.1//EN" "http://www.w3.org/Graphics/SVG/1.1/DTD/svg11.dtd">
<svg width="100%" height="100%" viewBox="0 0 479 406" version="1.1" xmlns="http://www.w3.org/2000/svg" xmlns:xlink="http://www.w3.org/1999/xlink" xml:space="preserve" xmlns:serif="http://www.serif.com/" style="fill-rule:evenodd;clip-rule:evenodd;stroke-linejoin:round;stroke-miterlimit:2;">
    <g transform="matrix(1,0,0,1,-3639.23,-1177.77)">
        <g transform="matrix(4.16667,0,0,4.16667,0,0)">
            <path d="M873.948,295.023C873.874,295.089 873.746,294.991 873.658,294.802C873.528,294.519 873.548,294.49 873.789,294.629C874.115,294.817 874.131,294.858 873.948,295.023ZM886.895,357.045C886.795,357.064 886.714,357.042 886.705,356.995L886.844,356.772C886.924,356.699 887.015,356.724 887.032,356.823C887.051,356.922 886.986,357.029 886.895,357.045ZM886.873,356.334C886.658,356.353 886.661,356.113 886.879,355.993C886.988,355.933 887.064,355.983 887.044,356.102C887.025,356.226 886.949,356.328 886.873,356.334ZM887.631,358.157C887.532,358.176 887.445,358.119 887.427,358.024C887.409,357.93 887.462,357.799 887.55,357.719C887.634,357.643 887.727,357.703 887.754,357.852C887.782,358.001 887.726,358.14 887.631,358.157ZM887.423,356.528C887.229,356.589 887.167,356.574 887.28,356.495C887.392,356.415 887.458,356.256 887.434,356.124C887.409,355.991 887.463,355.827 887.559,355.741C887.669,355.643 887.734,355.735 887.745,356.006C887.756,356.261 887.631,356.463 887.423,356.528ZM888.567,360.661C888.396,360.868 888.363,360.845 888.385,360.532C888.419,360.082 888.666,359.815 888.731,360.16C888.755,360.293 888.679,360.527 888.567,360.661ZM887.989,357.732C887.95,357.739 887.903,357.636 887.875,357.487C887.847,357.339 887.897,357.218 887.992,357.2C888.089,357.183 888.136,357.285 888.107,357.445C888.076,357.604 888.028,357.725 887.989,357.732ZM888.573,358.342C888.478,358.36 888.384,358.292 888.365,358.192C888.347,358.093 888.419,358.045 888.525,358.086C888.636,358.129 888.725,358.193 888.733,358.235C888.74,358.278 888.672,358.323 888.573,358.342ZM888.509,357.088C888.23,356.798 888.183,356.57 888.423,356.663C888.539,356.707 888.649,356.865 888.68,357.03C888.726,357.279 888.701,357.287 888.509,357.088ZM877.895,301.073C877.757,300.979 877.7,300.847 877.759,300.757C877.812,300.674 877.951,300.704 878.058,300.821C878.323,301.114 878.209,301.29 877.895,301.073ZM888.446,354.294C888.269,354.4 888.176,354.318 888.117,354.004C888.072,353.756 888.113,353.596 888.212,353.635C888.306,353.673 888.41,353.598 888.439,353.473C888.466,353.347 888.535,353.447 888.59,353.694C888.646,353.94 888.579,354.213 888.446,354.294ZM889.311,358.586C889.13,358.81 888.908,358.998 888.801,359.018C888.668,359.043 888.656,359.004 888.76,358.889C888.843,358.797 888.965,358.5 889.036,358.213C889.108,357.926 889.243,357.687 889.346,357.668C889.653,357.611 889.63,358.188 889.311,358.586ZM877.718,293.167C877.619,293.186 877.531,293.125 877.512,293.026C877.493,292.926 877.555,292.839 877.654,292.82C877.753,292.801 877.841,292.862 877.86,292.962C877.878,293.061 877.818,293.149 877.718,293.167ZM879.446,302.283C879.387,302.243 879.418,302.091 879.513,301.954C879.655,301.747 879.675,301.761 879.62,302.028C879.584,302.206 879.503,302.323 879.446,302.283ZM889.635,355.356L889.348,355.332C889.27,355.246 889.299,355.161 889.415,355.14C889.535,355.118 889.561,355.002 889.475,354.863C889.39,354.725 889.389,354.568 889.474,354.487C889.556,354.409 889.655,354.539 889.7,354.788C889.746,355.036 889.718,355.282 889.635,355.356ZM879.527,300.925C879.432,300.942 879.301,300.889 879.222,300.801C879.145,300.717 879.205,300.625 879.355,300.597C879.503,300.57 879.642,300.625 879.659,300.72C879.678,300.819 879.621,300.907 879.527,300.925ZM890.373,358.367C890.275,358.385 890.186,358.324 890.168,358.225C890.15,358.126 890.21,358.038 890.309,358.02C890.408,358.001 890.496,358.062 890.515,358.161C890.533,358.26 890.473,358.348 890.373,358.367ZM889.588,353.217C889.505,353.293 889.411,353.233 889.384,353.084C889.357,352.935 889.412,352.797 889.507,352.779C889.607,352.76 889.694,352.818 889.711,352.912C889.729,353.007 889.676,353.137 889.588,353.217ZM890.684,357.779C890.647,357.786 890.596,357.675 890.569,357.527C890.54,357.378 890.592,357.248 890.685,357.231C890.778,357.214 890.828,357.324 890.8,357.484C890.772,357.643 890.721,357.772 890.684,357.779ZM889.874,357.382C889.748,357.535 889.682,357.543 889.656,357.405C889.609,357.147 890.211,356.429 890.525,356.371C890.698,356.339 890.662,356.467 890.422,356.741C890.225,356.967 889.972,357.262 889.874,357.382ZM878.696,292.627C878.601,292.644 878.507,292.576 878.489,292.477C878.47,292.378 878.542,292.329 878.648,292.37C878.759,292.413 878.848,292.477 878.856,292.52C878.864,292.562 878.795,292.608 878.696,292.627ZM889.779,351.291C889.679,351.31 889.599,351.292 889.591,351.249L889.731,351.035C889.815,350.959 889.9,350.978 889.918,351.077C889.937,351.176 889.873,351.274 889.779,351.291ZM880.164,296.665C880.065,296.684 879.985,296.666 879.977,296.623L880.116,296.409C880.2,296.333 880.285,296.352 880.304,296.451C880.323,296.55 880.259,296.648 880.164,296.665ZM891.461,357.634C891.37,357.652 891.368,357.806 891.456,357.978C891.545,358.15 891.534,358.363 891.434,358.452C891.304,358.567 891.266,358.526 891.305,358.314C891.334,358.154 891.29,358.026 891.211,358.04C891.126,358.056 891.051,358.224 891.036,358.432C891.021,358.64 890.889,358.819 890.729,358.848C890.514,358.888 890.549,358.711 890.874,358.103C891.311,357.286 891.76,356.857 891.674,357.338C891.649,357.48 891.549,357.618 891.461,357.634ZM891.232,355.111C891.164,354.952 891.04,354.838 890.953,354.854C890.864,354.871 890.782,354.809 890.764,354.71C890.745,354.612 890.872,354.51 891.054,354.476C891.315,354.428 891.374,354.511 891.365,354.906C891.357,355.25 891.318,355.311 891.232,355.111ZM891.819,355.181C891.745,355.131 891.711,354.987 891.739,354.845C891.767,354.7 891.82,354.736 891.866,354.933C891.908,355.113 891.887,355.228 891.819,355.181ZM892.515,358.239C892.404,358.197 892.296,358.078 892.278,357.979C892.257,357.865 892.359,357.861 892.549,357.967C892.874,358.148 892.847,358.369 892.515,358.239ZM891.873,353.867C891.781,353.95 891.68,353.838 891.637,353.607C891.575,353.276 891.603,353.244 891.784,353.434C892.05,353.71 892.05,353.71 891.873,353.867ZM892.16,354.442C892.066,354.46 891.971,354.392 891.952,354.292C891.934,354.193 892.007,354.145 892.113,354.186C892.223,354.229 892.312,354.293 892.32,354.335C892.327,354.378 892.259,354.424 892.16,354.442ZM892.277,356.405C891.942,356.175 892.198,355.985 892.547,356.204C892.702,356.301 892.762,356.428 892.675,356.477C892.579,356.529 892.413,356.499 892.277,356.405ZM880.57,291.107C880.486,291.183 880.401,291.164 880.382,291.064C880.364,290.965 880.427,290.868 880.522,290.85C880.621,290.832 880.701,290.85 880.709,290.892L880.57,291.107ZM892.654,355.257C892.554,355.276 892.528,355.362 892.598,355.439C892.745,355.599 892.464,355.922 892.283,355.799C892.136,355.698 892.415,354.942 892.614,354.905C892.708,354.888 892.793,354.949 892.812,355.048C892.828,355.139 892.753,355.239 892.654,355.257ZM892.517,353.965C892.367,353.993 892.242,353.919 892.218,353.789C892.197,353.672 892.099,353.427 892.011,353.272C891.922,353.113 892.057,353.186 892.306,353.431C892.555,353.676 892.768,353.892 892.77,353.901C892.772,353.91 892.665,353.938 892.517,353.965ZM893.348,355.034C893.264,355.11 893.171,355.05 893.144,354.901C893.115,354.752 893.172,354.613 893.267,354.596C893.365,354.577 893.453,354.634 893.471,354.729C893.489,354.823 893.436,354.954 893.348,355.034ZM894.183,356.675C894.099,356.752 894.014,356.733 893.995,356.633C893.977,356.531 893.855,356.517 893.716,356.602C893.44,356.772 893.325,356.467 893.579,356.237C893.784,356.05 894.263,356.139 894.306,356.37C894.323,356.465 894.271,356.596 894.183,356.675ZM894.538,356.284C894.472,356.239 894.435,356.081 894.46,355.957C894.49,355.813 894.541,355.848 894.588,356.045C894.631,356.225 894.609,356.333 894.538,356.284ZM881.92,290.505C881.763,290.397 882.023,290.041 882.207,290.113C882.337,290.163 882.336,290.257 882.204,290.375C882.087,290.48 881.965,290.536 881.92,290.505ZM895.215,355.923C894.963,356.078 894.886,355.938 894.97,355.477C894.999,355.318 895.104,355.207 895.192,355.242C895.462,355.35 895.476,355.761 895.215,355.923ZM896.574,355.778C896.49,355.639 896.332,355.493 896.213,355.443C896.086,355.39 896.123,355.331 896.306,355.298C896.514,355.259 896.629,355.366 896.667,355.633C896.705,355.899 896.675,355.946 896.574,355.778ZM884.698,292.059C884.599,292.077 884.511,292.017 884.492,291.918C884.474,291.819 884.534,291.73 884.634,291.712C884.734,291.694 884.822,291.754 884.84,291.853C884.859,291.952 884.798,292.041 884.698,292.059ZM896.849,355.043C896.762,355.059 896.634,354.988 896.581,354.896C896.524,354.794 896.604,354.695 896.77,354.664C896.935,354.633 897.049,354.696 897.036,354.811C897.025,354.916 896.935,355.027 896.849,355.043ZM887.665,295.042C887.599,294.996 887.561,294.839 887.587,294.714C887.616,294.57 887.667,294.605 887.714,294.801C887.757,294.982 887.735,295.09 887.665,295.042ZM887.06,292.151C886.96,292.17 886.872,292.109 886.854,292.009C886.835,291.91 886.896,291.822 886.995,291.804C887.094,291.785 887.183,291.846 887.201,291.945C887.219,292.045 887.159,292.133 887.06,292.151ZM897.811,345.804C897.738,345.755 897.703,345.611 897.731,345.468C897.759,345.323 897.812,345.36 897.859,345.556C897.902,345.737 897.879,345.851 897.811,345.804ZM900.956,354.981C900.901,355.125 900.792,355.135 900.582,355.017C900.33,354.875 900.323,354.818 900.53,354.641C900.662,354.528 900.752,354.321 900.727,354.186C900.702,354.053 900.766,353.922 900.864,353.904C901.042,353.87 901.105,354.594 900.956,354.981ZM900.145,350.085C900.046,350.103 899.957,350.042 899.94,349.943C899.921,349.844 899.982,349.756 900.08,349.737C900.18,349.719 900.268,349.779 900.286,349.879C900.305,349.978 900.244,350.066 900.145,350.085ZM901.777,355C901.686,355.017 901.586,354.942 901.568,354.842C901.549,354.743 901.625,354.688 901.726,354.727C901.836,354.77 901.926,354.838 901.935,354.885C901.944,354.932 901.876,354.982 901.777,355ZM902.386,354.049C902.358,354.208 902.254,354.364 902.166,354.38C902.072,354.398 902.033,354.328 902.076,354.217C902.117,354.112 902.069,354.039 901.97,354.057C901.867,354.076 901.766,353.976 901.739,353.827C901.69,353.562 902.037,353.411 902.293,353.587C902.449,353.695 902.449,353.695 902.386,354.049ZM898.31,314.495L898.096,314.355C898.019,314.271 898.038,314.186 898.138,314.168C898.237,314.149 898.334,314.213 898.352,314.307C898.37,314.406 898.352,314.487 898.31,314.495ZM899.661,317.075C899.589,317.026 899.555,316.882 899.582,316.739C899.61,316.594 899.663,316.63 899.709,316.827C899.752,317.008 899.73,317.122 899.661,317.075ZM906.482,340.798C906.24,340.535 906.156,340.164 906.331,340.137C906.404,340.126 906.514,340.321 906.573,340.567C906.653,340.894 906.628,340.957 906.482,340.798ZM906.568,333.348C906.481,333.426 906.437,333.363 906.467,333.204C906.528,332.884 906.645,332.8 906.691,333.043C906.708,333.137 906.656,333.268 906.568,333.348ZM911.011,350.18C910.938,350.13 910.904,349.986 910.931,349.844C910.959,349.698 911.012,349.735 911.059,349.931C911.101,350.112 911.079,350.227 911.011,350.18ZM911.799,350.878L911.532,350.87C911.465,350.791 911.52,350.663 911.657,350.578C911.918,350.416 912.035,350.663 911.799,350.878ZM911.071,340.827C910.997,340.777 910.963,340.633 910.99,340.491C911.019,340.345 911.072,340.382 911.118,340.578C911.16,340.759 911.139,340.874 911.071,340.827ZM913.934,345.009C913.839,345.027 913.745,344.958 913.727,344.859C913.708,344.76 913.781,344.712 913.887,344.752C913.997,344.796 914.086,344.86 914.094,344.902C914.102,344.945 914.033,344.99 913.934,345.009ZM938.215,328.942C938.09,328.914 938.182,328.854 938.413,328.811C938.645,328.768 938.752,328.792 938.645,328.862C938.538,328.933 938.34,328.969 938.215,328.942ZM941.344,310.55C941.285,310.509 941.317,310.358 941.411,310.22C941.553,310.014 941.573,310.028 941.519,310.295C941.483,310.472 941.403,310.59 941.344,310.55ZM953.795,309.05C953.696,309.069 953.615,309.047 953.606,309L953.744,308.777C953.824,308.704 953.915,308.728 953.934,308.827C953.952,308.926 953.886,309.033 953.795,309.05ZM962.381,351.462C962.278,351.344 962.217,351.192 962.252,351.135C962.29,351.073 962.405,351.124 962.523,351.256C962.642,351.388 962.696,351.525 962.652,351.583C962.612,351.636 962.486,351.579 962.381,351.462ZM955.537,296.228C955.453,296.304 955.368,296.285 955.35,296.185C955.331,296.086 955.395,295.989 955.49,295.971C955.589,295.953 955.669,295.971 955.677,296.013L955.537,296.228ZM977.858,362.242C977.758,362.26 977.678,362.242 977.67,362.199L977.81,361.985C977.894,361.909 977.979,361.928 977.997,362.028C978.016,362.127 977.952,362.224 977.858,362.242ZM976.897,298.01C976.813,298.086 976.728,298.067 976.709,297.968C976.691,297.868 976.754,297.771 976.849,297.754C976.948,297.735 977.029,297.753 977.036,297.796L976.897,298.01ZM981.316,291.534C981.097,291.024 980.743,290.17 980.521,289.612C980.299,289.054 979.969,288.488 979.78,288.338C979.587,288.185 979.466,288.052 979.5,288.031C979.635,287.952 979.186,287.259 979.021,287.29C978.926,287.307 978.837,287.221 978.812,287.089C978.788,286.961 978.447,286.684 978.047,286.469C977.648,286.256 977.152,285.972 976.938,285.838C976.731,285.707 976.371,285.598 976.167,285.604C975.962,285.61 975.739,285.476 975.686,285.317C975.633,285.156 975.559,285.012 975.525,285.005C975.49,284.997 975.262,284.923 975.006,284.836C974.659,284.718 974.527,284.735 974.454,284.904C974.384,285.068 974.323,285.066 974.222,284.896C974.147,284.769 973.713,284.552 973.26,284.416C972.807,284.279 972.332,284.078 972.207,283.97C972.015,283.804 971.156,283.913 970.639,284.168C970.263,284.354 970.026,284.274 969.964,283.942C969.927,283.743 969.829,283.638 969.749,283.711C969.552,283.89 968.088,283.451 967.91,283.159C967.7,282.817 967.248,282.957 967.216,283.374C967.2,283.582 967.114,283.708 967.013,283.668C966.92,283.631 966.857,283.441 966.878,283.265C966.927,282.863 966.329,282.696 966.179,283.07C966.107,283.25 966.07,283.244 966.033,283.046C966.005,282.896 965.754,282.742 965.454,282.692C964.985,282.612 964.862,282.681 964.378,283.302C964.074,283.692 963.884,283.992 963.948,283.981C964.015,283.968 963.983,284.074 963.874,284.227C963.565,284.664 960.267,287.008 959.854,287.085C959.738,287.107 959.229,287.404 958.742,287.736C958.257,288.068 957.826,288.343 957.802,288.339C957.778,288.334 957.337,288.644 956.811,289.036C956.285,289.428 955.574,289.899 955.211,290.094C954.854,290.287 954.306,290.633 954.001,290.858C953.7,291.08 953.241,291.402 953.002,291.557C952.01,292.202 951.683,292.45 951.427,292.752C951.273,292.933 951.059,293.107 950.951,293.137C950.71,293.205 949.903,293.755 948.202,295.01C947.495,295.532 946.809,295.975 946.667,296.002C946.53,296.027 946.279,296.217 946.127,296.41C945.974,296.604 945.65,296.834 945.424,296.908C945.198,296.982 944.9,297.184 944.778,297.345C944.654,297.508 944.49,297.654 944.418,297.668C944.185,297.712 942.188,299.197 941.712,299.681C941.468,299.93 941.114,300.187 940.928,300.25C940.736,300.315 940.533,300.451 940.457,300.568C940.387,300.675 940.175,300.8 940.01,300.831C939.83,300.864 939.631,301.055 939.545,301.277C939.459,301.498 939.26,301.689 939.08,301.722C938.601,301.811 935.642,304.213 935.69,304.473C935.717,304.618 935.627,304.685 935.449,304.653C935.131,304.594 933.906,305.467 933.954,305.719C933.969,305.803 933.759,305.962 933.474,306.083C933.188,306.203 932.916,306.452 932.852,306.652C932.788,306.851 932.63,306.985 932.49,306.958C932.355,306.932 932.141,307.057 932.019,307.234C931.898,307.41 931.703,307.575 931.59,307.596C931.475,307.617 931.087,307.927 930.711,308.298C930.335,308.669 929.941,308.98 929.816,309.003C929.693,309.026 929.469,309.211 929.319,309.415C929.031,309.803 928.919,309.888 928.614,309.945C928.522,309.962 928.484,310.192 928.529,310.457C928.601,310.888 928.586,310.905 928.388,310.62C928.261,310.438 928.18,310.395 928.198,310.518C928.215,310.635 928.165,310.729 928.09,310.722C927.885,310.703 926.731,311.599 926.415,312.021C926.265,312.223 926.04,312.407 925.918,312.43C925.79,312.454 925.641,312.636 925.569,312.855C925.497,313.073 925.305,313.263 925.12,313.297C924.939,313.331 924.7,313.494 924.574,313.672C924.452,313.844 924.342,313.943 924.332,313.888C924.323,313.834 923.969,314.143 923.552,314.571C922.704,315.443 922.643,315.477 922.576,315.121C922.532,314.886 922.115,314.843 921.548,315.017C921.451,315.047 921.343,314.888 921.313,314.672C921.272,314.388 921.167,314.296 920.954,314.353C920.791,314.397 920.654,314.341 920.656,314.229C920.66,313.886 920.06,313.358 919.829,313.502C919.704,313.579 919.594,313.528 919.567,313.379C919.54,313.235 919.385,313.047 919.213,312.948C919.04,312.85 918.881,312.633 918.847,312.452C918.804,312.218 918.682,312.16 918.406,312.243C918.13,312.325 917.99,312.254 917.897,311.987C917.824,311.78 917.377,311.403 916.882,311.131C916.387,310.86 915.985,310.58 915.969,310.497C915.907,310.166 914.912,309.267 914.653,309.308C914.361,309.354 913.068,308.418 913.012,308.12L912.824,308.121C912.737,308.202 912.588,308.113 912.497,307.925C912.406,307.737 912.274,307.633 912.206,307.696C912.134,307.765 912.016,307.74 911.922,307.638C911.811,307.517 911.726,307.546 911.649,307.732C911.569,307.923 911.544,307.888 911.566,307.61C911.589,307.309 911.359,307.05 910.56,306.479C909.99,306.072 909.51,305.661 909.492,305.566C909.474,305.467 909.394,305.452 909.306,305.531C909.222,305.609 908.999,305.477 908.811,305.238C908.435,304.761 907.736,304.309 907.455,304.362C907.369,304.377 907.27,304.284 907.248,304.169C907.226,304.049 906.907,303.693 906.558,303.399C905.991,302.922 905.866,302.885 905.58,303.11C905.371,303.274 905.281,303.294 905.333,303.164C905.378,303.052 905.29,302.787 905.139,302.576C904.933,302.289 904.776,302.231 904.524,302.348C904.255,302.472 904.196,302.44 904.239,302.196C904.269,302.019 904.221,301.899 904.126,301.917C904.038,301.933 903.94,301.832 903.915,301.699C903.875,301.485 902.649,300.771 902.553,300.907C902.447,301.06 902.168,300.98 902.232,300.814C902.276,300.701 902.146,300.6 901.938,300.587C901.727,300.572 901.451,300.361 901.303,300.097C901.067,299.679 900.835,299.573 900.448,299.705C900.377,299.73 900.291,299.6 900.258,299.419C900.194,299.071 899.715,298.886 899.465,299.112C899.39,299.18 899.315,299.132 899.29,298.999C899.239,298.72 896.927,297.146 896.646,297.197C896.539,297.217 896.448,297.132 896.448,297.012C896.449,296.884 896.355,296.829 896.228,296.882C896.101,296.935 896.039,296.887 896.084,296.772C896.177,296.532 895.705,296.084 895.528,296.243C895.463,296.301 895.177,296.111 894.893,295.821C894.61,295.531 894.187,295.235 893.958,295.165C893.738,295.097 893.459,294.855 893.366,294.65C893.274,294.445 893.02,294.245 892.825,294.224C892.465,294.186 892.362,294.041 892.323,293.518C892.305,293.281 892.285,293.285 892.169,293.546C892.045,293.825 892.026,293.813 891.875,293.362C891.837,293.249 891.713,293.189 891.607,293.232C891.494,293.277 891.391,293.224 891.37,293.113C891.349,292.997 891.297,292.967 891.246,293.042C891.198,293.111 890.905,292.986 890.605,292.767C890.304,292.55 889.856,292.304 889.624,292.231C889.388,292.156 889.204,292.034 889.213,291.957C889.237,291.748 887.239,290.398 887.052,290.497C886.977,290.536 886.933,290.387 886.958,290.176C886.986,289.949 886.944,289.84 886.859,289.918C886.674,290.087 885.654,289.418 885.592,289.087C885.568,288.955 885.457,288.856 885.356,288.875C885.253,288.893 885.208,288.799 885.258,288.67C885.32,288.51 885.267,288.529 885.098,288.726C884.957,288.89 884.787,288.982 884.717,288.933C884.646,288.884 884.68,288.829 884.796,288.807C884.953,288.778 884.943,288.695 884.748,288.457C884.603,288.279 884.387,288.165 884.245,288.191C884.102,288.217 883.978,288.13 883.949,287.981C883.923,287.84 883.739,287.671 883.537,287.605C883.046,287.445 882.928,287.474 883.021,287.734C883.089,287.923 883.084,288.355 883.004,289.362C882.974,289.745 882.505,289.874 882.439,289.519C882.411,289.37 882.314,289.268 882.216,289.286C882.125,289.303 882.059,289.41 882.077,289.509C882.097,289.611 881.989,289.675 881.847,289.646C881.676,289.612 881.571,289.749 881.553,290.026C881.523,290.528 881.081,290.843 880.875,290.51C880.746,290.303 880.713,290.31 880.531,290.583C880.417,290.756 880.183,290.913 879.984,290.95C879.718,290.999 879.675,291.101 879.8,291.386C879.89,291.592 879.901,291.67 879.823,291.562C879.749,291.456 879.62,291.424 879.546,291.493C879.474,291.56 879.387,291.514 879.365,291.398C879.335,291.233 879.282,291.236 879.162,291.41C878.939,291.737 879.42,292.154 879.774,291.938C879.972,291.818 880.021,291.859 879.977,292.106C879.945,292.283 879.924,292.468 879.931,292.508C879.939,292.551 879.87,292.596 879.772,292.615C879.677,292.633 879.582,292.565 879.564,292.465C879.453,291.87 878.179,291.72 878.265,292.313C878.306,292.597 878.298,292.597 878.126,292.321C877.95,292.042 877.93,292.048 877.596,292.465C877.194,292.969 876.983,293.031 876.915,292.666C876.888,292.517 876.802,292.459 876.719,292.531C876.638,292.603 876.641,292.803 876.724,292.975C876.808,293.148 876.801,293.358 876.708,293.441C876.62,293.519 876.524,293.505 876.506,293.409C876.467,293.202 875.305,293.577 875.036,293.883C874.937,293.997 874.584,294.12 874.265,294.151C873.476,294.229 873.313,294.426 873.466,295.12C873.538,295.449 873.635,295.675 873.684,295.628C873.732,295.581 873.823,295.85 873.89,296.231C873.973,296.712 874.072,296.882 874.217,296.795C874.351,296.715 874.454,296.827 874.506,297.109C874.58,297.506 874.608,297.517 874.802,297.225C874.918,297.05 875.031,296.9 875.049,296.897C875.067,296.893 875.14,297.265 875.209,297.714C875.304,298.329 875.433,298.594 875.721,298.763C876.105,298.989 876.387,299.711 876.112,299.762C876.03,299.778 876.136,300.288 876.348,300.899C876.683,301.863 876.749,301.955 876.855,301.6C876.919,301.383 877.039,301.237 877.114,301.287C877.365,301.46 877.346,301.714 877.089,301.619C876.761,301.497 877.311,301.986 878.155,302.565C878.528,302.821 878.86,303.135 878.881,303.252C878.904,303.374 879.094,303.57 879.325,303.708C879.556,303.846 879.702,304.021 879.665,304.115C879.63,304.209 879.737,304.219 879.909,304.138C880.147,304.029 880.278,304.121 880.482,304.546C880.663,304.923 880.871,305.088 881.144,305.072C881.398,305.058 881.565,305.175 881.607,305.397C881.661,305.695 881.715,305.708 881.983,305.49C882.221,305.296 882.307,305.288 882.345,305.457C882.373,305.584 882.434,305.517 882.487,305.302C882.575,304.944 882.583,304.942 882.65,305.255C882.688,305.436 883.077,305.98 883.515,306.463C883.953,306.946 884.326,307.42 884.344,307.515C884.361,307.609 884.656,307.858 884.983,308.055C885.388,308.3 885.574,308.339 885.544,308.174C885.497,307.925 885.937,307.544 886.12,307.673C886.188,307.72 886.168,307.852 886.074,307.989C885.872,308.284 885.905,308.595 886.117,308.404C886.21,308.321 886.317,308.467 886.369,308.748C886.424,309.046 886.657,309.366 886.966,309.569C887.24,309.749 887.455,309.803 887.434,309.688C887.401,309.513 887.45,309.504 887.698,309.639C887.865,309.73 888.031,309.953 888.064,310.135C888.147,310.582 888.768,311.066 889.164,310.992C889.329,310.961 889.446,311.017 889.408,311.109C889.369,311.207 889.504,311.303 889.714,311.326C889.923,311.349 890.11,311.477 890.135,311.615C890.16,311.748 890.24,311.835 890.307,311.802C890.511,311.702 891.297,312.038 891.235,312.198C891.203,312.28 891.369,312.541 891.611,312.787C891.852,313.033 892.029,313.148 892.01,313.047C891.981,312.889 892.533,312.735 893.067,312.752C893.142,312.755 893.2,312.988 893.196,313.263C893.19,313.658 893.29,313.827 893.656,314.033C893.904,314.173 894.172,314.408 894.227,314.534C894.364,314.851 894.731,315.159 894.927,315.123C895.175,315.077 896.092,315.685 896.137,315.925C896.161,316.057 896.28,316.138 896.411,316.113C896.54,316.09 897.13,316.433 897.736,316.885C898.599,317.529 898.851,317.643 898.939,317.424C899.006,317.257 899.069,317.228 899.097,317.351C899.123,317.467 899.073,317.618 898.982,317.697C898.792,317.862 899.137,318.345 899.763,318.793C900.048,318.997 900.194,319.019 900.22,318.862C900.289,318.454 900.578,318.556 900.664,319.02C900.726,319.35 900.813,319.427 901.001,319.316C901.14,319.234 901.222,319.254 901.181,319.36C901.138,319.47 901.23,319.53 901.395,319.5C901.593,319.463 901.666,319.538 901.627,319.739C901.586,319.952 901.638,319.991 901.817,319.882C902.089,319.716 902.687,320.235 902.776,320.715C902.806,320.88 902.948,321.008 903.073,320.985C903.206,320.96 903.419,321.028 903.549,321.135C903.887,321.415 904.692,321.408 904.519,321.127C904.441,321 904.502,320.89 904.667,320.86C904.987,320.8 905.037,320.945 904.924,321.599C904.872,321.9 904.91,322.102 905.026,322.145C905.124,322.181 905.239,322.37 905.273,322.552C905.312,322.765 905.499,322.899 905.776,322.912C906.052,322.925 906.199,323.032 906.171,323.198C906.147,323.34 906.215,323.446 906.317,323.428C906.415,323.409 906.491,323.309 906.474,323.219C906.456,323.12 906.517,323.031 906.615,323.013C906.71,322.995 906.813,323.105 906.84,323.254C906.867,323.403 906.948,323.477 907.016,323.418C907.085,323.357 907.195,323.504 907.261,323.748C907.386,324.204 907.746,324.467 907.969,324.266C908.035,324.206 908.108,324.276 908.135,324.425C908.161,324.566 908.375,324.75 908.594,324.819C908.921,324.922 908.96,324.987 908.79,325.141C908.639,325.279 908.711,325.313 909.043,325.257C909.381,325.2 909.691,325.35 910.18,325.807C910.547,326.15 910.864,326.491 910.876,326.559C910.889,326.627 910.581,326.955 910.198,327.284C909.814,327.612 909.507,327.941 909.52,328.008C909.532,328.078 909.338,328.273 909.079,328.45C908.822,328.626 908.604,328.943 908.588,329.166C908.565,329.495 908.52,329.526 908.33,329.342C908.131,329.149 908.083,329.165 907.976,329.459C907.907,329.643 907.779,329.773 907.695,329.742C907.609,329.711 907.273,330.053 906.947,330.506C906.619,330.958 906.236,331.347 906.09,331.375C905.941,331.402 905.803,331.548 905.775,331.707C905.746,331.866 905.623,332.008 905.493,332.033C905.365,332.057 905.187,332.227 905.094,332.415C905.001,332.602 904.732,332.905 904.492,333.092C904.253,333.278 904.078,333.536 904.103,333.669C904.128,333.8 904.065,333.876 903.963,333.836C903.782,333.765 901.676,336.061 901.235,336.81C901.099,337.041 900.989,337.164 900.976,337.098C900.957,336.995 900.477,337.544 899.875,338.356C899.702,338.589 899.316,338.981 899.018,339.224C898.721,339.467 898.305,339.934 898.098,340.259C897.888,340.589 897.713,340.81 897.703,340.76C897.695,340.711 897.532,340.854 897.351,341.073C897.168,341.294 896.512,342.08 895.909,342.8C893.669,345.479 893,346.416 893.056,346.799C893.108,347.148 893.101,347.151 892.905,346.844C892.719,346.553 892.694,346.554 892.632,346.852C892.596,347.029 892.688,347.283 892.832,347.405C893.15,347.671 892.873,347.75 892.504,347.498C892.303,347.361 892.183,347.44 891.925,347.881C891.746,348.188 891.52,348.453 891.419,348.471C891.315,348.491 891.187,348.669 891.119,348.886C891.053,349.104 890.924,349.282 890.821,349.301C890.559,349.35 889.392,351.192 889.445,351.473C889.475,351.638 889.367,351.707 889.123,351.678C888.802,351.64 888.781,351.699 888.961,352.144C889.077,352.431 889.145,352.875 889.115,353.159C889.067,353.638 889.051,353.625 888.823,352.915C888.593,352.204 888.567,352.183 888.331,352.527C888.197,352.723 888.146,352.96 888.222,353.043C888.298,353.127 888.203,353.269 888.014,353.355C887.825,353.442 887.726,353.577 887.796,353.653C887.865,353.728 887.8,353.815 887.652,353.842C887.502,353.87 887.401,354.009 887.426,354.149C887.453,354.298 887.359,354.384 887.198,354.354C887.012,354.319 886.946,354.418 886.991,354.666C887.066,355.063 887.572,355.082 887.836,354.697C888.053,354.382 888.591,354.574 888.655,354.99C888.708,355.34 888.701,355.342 888.49,355.038C888.281,354.738 888.272,354.745 888.338,355.143C888.404,355.542 888.39,355.55 888.107,355.28C887.835,355.023 887.781,355.025 887.554,355.298C887.33,355.567 887.272,355.572 887.027,355.344C886.69,355.03 886.514,355.043 886.576,355.376C886.599,355.502 886.477,355.623 886.309,355.64C886.074,355.664 886.03,355.777 886.129,356.101C886.203,356.344 886.336,356.542 886.436,356.557C886.544,356.574 886.569,356.721 886.498,356.939C886.428,357.157 886.455,357.321 886.569,357.362C886.889,357.482 886.681,358.059 886.072,358.739C885.66,359.198 885.369,359.391 885.218,359.306C884.993,359.179 884.796,359.334 884.845,359.599C884.86,359.679 884.968,359.71 885.08,359.666C885.197,359.621 885.347,359.762 885.422,359.988C885.525,360.294 885.487,360.377 885.264,360.334C885.077,360.298 884.925,360.431 884.845,360.702C884.775,360.938 884.666,361.176 884.602,361.235C884.539,361.293 884.619,361.425 884.774,361.52C884.948,361.626 885.051,361.628 885.031,361.523C885.013,361.423 885.107,361.33 885.255,361.302C885.4,361.275 885.49,361.139 885.463,360.99C885.435,360.841 885.49,360.711 885.587,360.693C885.685,360.675 885.74,360.545 885.711,360.396C885.656,360.098 885.914,359.998 886.129,360.233C886.215,360.327 886.194,360.409 886.077,360.431C885.961,360.452 885.947,360.541 886.04,360.643C886.134,360.745 886.109,360.782 885.98,360.731C885.834,360.675 885.801,360.799 885.884,361.092C885.98,361.433 886.042,361.476 886.149,361.273C886.223,361.131 886.427,360.886 886.589,360.746C886.751,360.606 886.853,360.342 886.809,360.175C886.765,360.012 886.802,359.796 886.886,359.719C887.115,359.509 886.776,359.214 886.498,359.383C886.376,359.457 886.251,359.434 886.233,359.333C886.214,359.233 886.269,359.129 886.346,359.114C886.426,359.1 886.54,358.899 886.592,358.684C886.686,358.288 886.698,358.288 887.253,358.698C887.568,358.931 887.8,359.02 887.778,358.9C887.705,358.511 888.041,358.612 888.236,359.038C888.344,359.274 888.494,359.402 888.575,359.325C888.658,359.246 888.744,359.311 888.775,359.476C888.806,359.642 888.731,359.752 888.6,359.732C888.364,359.697 887.747,360.668 887.805,360.983C887.825,361.089 887.958,361.159 888.09,361.135C888.256,361.104 888.323,361.194 888.294,361.405C888.271,361.578 888.402,361.411 888.585,361.034C888.768,360.658 888.968,360.258 889.028,360.148C889.088,360.036 889.076,359.771 889.001,359.546C888.921,359.304 888.945,359.173 889.061,359.218C889.171,359.261 889.286,359.21 889.329,359.1C889.37,358.993 889.553,358.879 889.736,358.845C890.04,358.788 890.223,359.028 890.239,359.504C890.24,359.579 890.342,359.579 890.465,359.505C890.631,359.404 890.693,359.497 890.704,359.871C890.719,360.33 890.738,360.342 890.915,360.011C891.141,359.593 891.327,359.521 891.259,359.879C891.233,360.021 891.312,360.186 891.43,360.233C891.554,360.281 891.607,360.422 891.55,360.552C891.494,360.678 891.55,360.621 891.672,360.427C891.865,360.117 891.93,360.097 892.149,360.279C892.34,360.437 892.368,360.589 892.264,360.899C892.154,361.227 892.17,361.286 892.344,361.193C892.656,361.027 892.559,360.048 892.206,359.806C891.932,359.617 891.569,358.504 891.77,358.467C891.816,358.458 891.99,358.546 892.166,358.667C892.402,358.829 892.529,358.824 892.676,358.649C892.827,358.469 892.88,358.5 892.906,358.786C892.927,359.005 892.847,359.138 892.711,359.112C892.427,359.059 892.261,359.46 892.522,359.568C892.621,359.609 892.809,359.831 892.927,360.049C893.139,360.437 893.151,360.438 893.218,360.08C893.32,359.548 893.266,359.306 893.124,359.653C893.056,359.819 892.988,359.865 892.968,359.758C892.948,359.656 893.099,359.36 893.293,359.116C893.488,358.873 893.635,358.561 893.613,358.441C893.584,358.288 893.532,358.311 893.447,358.515C893.369,358.7 893.308,358.734 893.283,358.605C893.262,358.489 893.313,358.337 893.399,358.258C893.486,358.179 893.522,357.953 893.483,357.738C893.427,357.441 893.455,357.404 893.614,357.569C893.722,357.682 893.815,357.925 893.814,358.096C893.813,358.292 893.951,358.423 894.177,358.439C894.454,358.459 894.485,358.419 894.305,358.27C894.024,358.038 894.387,357.545 894.915,357.442C895.137,357.398 895.29,357.214 895.308,356.971C895.333,356.607 895.37,356.589 895.731,356.764C896.126,356.956 896.126,356.956 895.833,357.267C895.676,357.434 895.59,357.613 895.648,357.653C895.708,357.694 896.003,357.401 896.32,356.985C897.062,356.008 897.495,355.64 897.421,356.049C897.347,356.458 897.479,356.41 897.862,355.89C898.094,355.575 898.104,355.508 897.899,355.633C897.466,355.896 897.473,355.456 897.91,354.864C898.252,354.402 898.29,354.385 898.267,354.711C898.246,354.988 898.299,355.04 898.487,354.927C898.656,354.825 898.706,354.85 898.647,355.008C898.598,355.139 898.678,355.313 898.833,355.412C899.202,355.649 899.734,355.559 899.68,355.27C899.617,354.934 900.081,354.887 900.277,355.21C900.361,355.349 900.364,355.602 900.281,355.748C900.164,355.96 900.194,356.013 900.408,355.973C900.558,355.945 900.675,355.839 900.657,355.747C900.64,355.649 900.816,355.538 901.064,355.492C901.312,355.446 901.52,355.504 901.542,355.626C901.573,355.789 901.608,355.776 901.687,355.573C901.773,355.352 901.814,355.344 901.926,355.529C902.012,355.67 902.044,355.626 902.015,355.409C901.99,355.226 902.032,355.111 902.106,355.161C902.185,355.216 902.327,355.156 902.44,355.023C902.593,354.84 902.652,354.872 902.706,355.17C902.773,355.526 902.799,355.528 903.115,355.205C903.302,355.014 903.582,354.836 903.742,354.806C903.908,354.776 904.044,354.658 904.06,354.533C904.078,354.387 904.18,354.351 904.365,354.424C904.771,354.585 905.081,354.557 905.164,354.354C905.29,354.042 905.518,354.1 905.707,354.493C905.851,354.791 905.904,354.803 906.008,354.565C906.114,354.323 906.166,354.312 906.337,354.495C906.49,354.66 906.541,354.551 906.546,354.054C906.55,353.643 906.649,353.377 906.808,353.347C906.975,353.316 907.057,353.421 907.043,353.646C907.031,353.836 907.134,354.013 907.27,354.04C907.421,354.069 907.511,353.935 907.497,353.698C907.482,353.402 907.578,353.304 907.901,353.29C908.41,353.267 909.254,352.747 909.233,352.469C909.224,352.354 909.175,352.121 909.119,351.925C909.04,351.65 909.07,351.617 909.276,351.754C909.634,351.994 909.971,351.904 910.253,351.492C910.462,351.188 910.507,351.197 910.76,351.595C911.004,351.978 911.06,351.994 911.212,351.725C911.308,351.557 911.65,351.316 911.968,351.191C912.383,351.029 912.509,350.9 912.406,350.742C912.323,350.613 912.363,350.459 912.501,350.374C912.639,350.288 912.689,350.168 912.618,350.087L912.336,350.088C912.171,350.234 912.31,349.674 912.639,348.877C912.815,348.45 912.852,348.433 913.099,348.663C913.268,348.82 913.397,348.837 913.447,348.71C913.566,348.404 913.887,348.576 913.825,348.913C913.799,349.055 913.868,349.161 913.975,349.142C914.086,349.121 914.195,348.981 914.223,348.822C914.25,348.669 914.414,348.513 914.579,348.482C914.744,348.451 914.909,348.299 914.937,348.151C914.964,348.005 915.121,347.851 915.27,347.823C915.731,347.738 915.957,347.217 915.844,346.502L915.74,345.837L916.048,346.301L916.357,346.766L916.668,346.28C916.968,345.814 916.992,345.806 917.281,346.073C917.569,346.341 917.584,346.333 917.705,345.848C917.827,345.364 918.093,345.153 918.156,345.491C918.174,345.589 918.38,345.346 918.605,344.963C918.953,344.367 919.105,344.254 919.535,344.258C920.101,344.265 920.339,343.928 919.98,343.63C919.812,343.489 919.898,343.355 920.354,343.047C920.673,342.831 921.025,342.619 921.115,342.589C921.212,342.556 921.349,342.461 921.434,342.367C921.519,342.273 921.71,342.197 921.88,342.19C922.117,342.18 922.147,342.064 922.026,341.607C921.81,340.792 921.996,340.483 922.34,341.087C922.596,341.535 922.892,341.776 922.769,341.435C922.658,341.13 922.696,340.866 922.853,340.838C922.949,340.82 923.056,340.92 923.08,341.052C923.108,341.199 923.322,341.007 923.609,340.577C923.868,340.187 924.194,339.82 924.316,339.779C924.445,339.735 924.622,339.629 924.732,339.53C924.834,339.438 924.938,339.446 924.957,339.548C924.976,339.648 925.06,339.681 925.132,339.618C925.214,339.549 925.334,339.598 925.419,339.736C925.505,339.874 925.646,339.959 925.757,339.939C925.858,339.92 925.79,339.796 925.614,339.675C925.208,339.396 925.227,339.069 925.659,338.906C925.835,338.84 926.008,338.715 926.043,338.628C926.079,338.54 926.388,338.362 926.739,338.225C927.281,338.014 927.377,338.026 927.431,338.31C927.477,338.561 927.375,338.657 927.008,338.706C926.74,338.741 926.346,338.91 926.128,339.083C925.755,339.378 925.753,339.392 926.097,339.331C927.141,339.145 928.044,338.732 928,338.462C927.963,338.238 928.011,338.245 928.227,338.496C928.391,338.688 928.621,338.764 928.81,338.688C929,338.61 929.089,338.643 929.039,338.773C928.997,338.883 929.033,338.971 929.115,338.956C929.2,338.94 929.432,339.188 929.618,339.495C929.879,339.926 930.037,340.026 930.268,339.905C930.439,339.816 930.585,339.818 930.602,339.912C930.642,340.127 932.018,341.12 932.223,341.082C932.314,341.065 932.452,341.193 932.532,341.367C932.639,341.6 932.771,341.638 933.038,341.512C933.36,341.362 933.397,341.395 933.367,341.811C933.342,342.175 933.42,342.287 933.718,342.319C933.946,342.342 934.13,342.508 934.17,342.722C934.206,342.921 934.281,343.024 934.331,342.95C934.44,342.793 937.028,344.57 937.077,344.835C937.093,344.92 937.208,344.94 937.316,344.876C937.433,344.806 937.7,344.958 937.928,345.224C938.156,345.489 938.405,345.683 938.497,345.666C938.587,345.649 938.682,345.734 938.703,345.85C938.726,345.97 939.168,346.326 939.708,346.658C941.099,347.511 941.129,347.531 941.92,348.127C942.322,348.429 942.638,348.612 942.623,348.535C942.61,348.459 942.723,348.542 942.874,348.72C943.466,349.414 944.323,349.987 944.523,349.821C944.626,349.735 944.671,349.733 944.62,349.816C944.467,350.065 944.975,350.6 945.22,350.448C945.338,350.375 945.511,350.454 945.604,350.625C945.698,350.797 945.973,351.044 946.22,351.178C946.467,351.312 946.819,351.64 947.006,351.913C947.195,352.186 947.591,352.513 947.896,352.647C948.194,352.777 948.562,353.092 948.699,353.336C948.84,353.583 949.076,353.762 949.227,353.734C949.375,353.706 949.514,353.762 949.531,353.857C949.549,353.95 949.664,354.017 949.781,354C949.993,353.971 952.05,355.691 952.265,356.078C952.326,356.189 952.973,356.679 953.697,357.164C954.419,357.649 954.948,358.061 954.866,358.076C954.786,358.091 954.874,358.161 955.058,358.229C955.241,358.297 955.418,358.464 955.442,358.593C955.467,358.731 955.644,358.852 955.854,358.877C956.064,358.901 956.235,358.99 956.251,359.085C956.269,359.178 956.399,359.229 956.547,359.201C956.696,359.174 956.876,359.256 956.958,359.39C957.044,359.528 957.17,359.569 957.259,359.488C957.355,359.401 957.395,359.497 957.366,359.742C957.339,359.969 957.4,360.121 957.51,360.1C957.62,360.08 957.72,360.173 957.747,360.321C957.775,360.47 957.871,360.564 957.977,360.544C958.208,360.501 958.736,360.854 958.778,361.08C958.812,361.262 960.013,362.015 960.928,362.428C961.823,362.833 962.885,363.627 963.232,364.154C963.401,364.409 963.903,364.767 964.327,364.934C964.752,365.1 965.134,365.34 965.159,365.455C965.186,365.57 965.365,365.639 965.547,365.606C965.731,365.571 966.014,365.707 966.164,365.902C966.558,366.41 967.466,367.046 967.731,366.997C967.863,366.972 967.976,367.032 967.995,367.136C968.038,367.367 969.317,368.238 969.485,368.151C969.555,368.114 969.63,368.201 969.658,368.35C969.686,368.499 969.783,368.6 969.881,368.582C969.981,368.564 970.069,368.624 970.087,368.723C970.105,368.819 970.47,369.14 970.898,369.437C971.88,370.117 972.951,370.989 973.861,371.847C974.255,372.218 974.872,372.65 975.243,372.813C975.616,372.977 976.097,373.333 976.324,373.613C976.554,373.896 976.826,374.083 976.943,374.038C977.055,373.994 977.354,374.209 977.594,374.507C977.847,374.82 978.161,375.024 978.323,374.979C978.479,374.936 978.847,375.155 979.132,375.462C979.417,375.768 979.899,376.18 980.19,376.369C980.482,376.557 980.738,376.775 980.752,376.846C980.789,377.028 982.048,377.977 982.182,377.925C982.446,377.821 983.08,378.074 983.66,378.513C984.079,378.83 984.555,379.003 985.054,379.019C985.898,379.047 986.005,378.983 985.916,378.505C985.867,378.24 985.928,378.197 986.219,378.289C986.74,378.454 987.45,377.553 987.447,376.733C987.445,376.407 987.576,375.965 987.735,375.763C987.892,375.563 987.984,375.17 987.934,374.905C987.885,374.64 987.91,374.358 987.99,374.287C988.073,374.214 988.073,373.955 987.992,373.696C987.91,373.438 987.913,373.01 987.999,372.72C988.084,372.43 988.116,372.016 988.072,371.774C988.029,371.543 988.059,371.283 988.138,371.212C988.306,371.06 987.845,370.277 987.613,370.32C987.537,370.334 987.492,370.188 987.507,369.98C987.526,369.719 987.45,369.631 987.244,369.669C987.088,369.698 986.845,369.538 986.718,369.322C986.587,369.102 985.976,368.399 985.359,367.761C984.741,367.123 984.23,366.563 984.221,366.518C984.212,366.473 983.972,366.285 983.7,366.11C983.428,365.935 983.172,365.662 983.146,365.52C983.118,365.371 982.981,365.236 982.831,365.21C982.683,365.185 982.385,364.917 982.154,364.601C981.922,364.284 981.675,364.048 981.592,364.063C981.513,364.078 981.422,363.975 981.397,363.843C981.372,363.711 981.281,363.58 981.199,363.563C981.116,363.546 980.819,363.309 980.537,363.036C980.24,362.749 979.932,362.597 979.803,362.676C979.667,362.759 979.559,362.696 979.525,362.514C979.495,362.354 979.294,362.146 979.09,362.064C978.887,361.983 978.73,361.794 978.749,361.657C978.771,361.513 978.654,361.325 978.482,361.227C978.31,361.13 978.162,360.981 978.145,360.888C978.128,360.797 977.768,360.479 977.344,360.181C976.478,359.572 976.295,359.413 975.789,358.827C975.215,358.164 973.986,357.212 973.757,357.254C973.632,357.277 973.564,357.179 973.594,357.019C973.624,356.86 973.566,356.759 973.455,356.78C973.356,356.798 973.25,356.736 973.235,356.65C973.179,356.352 972.49,355.889 972.316,356.032L972.248,356.012C972.395,355.775 971.917,355.269 971.603,355.327C971.454,355.355 971.359,355.264 971.385,355.12C971.41,354.976 971.033,354.609 970.529,354.286C970.024,353.964 969.547,353.532 969.448,353.306C969.351,353.085 969.115,352.893 968.924,352.882C968.736,352.87 968.461,352.669 968.321,352.438C968.179,352.207 967.941,351.991 967.795,351.962C967.652,351.933 967.449,351.736 967.356,351.53C967.262,351.325 966.875,350.967 966.509,350.747C966.143,350.527 965.763,350.226 965.677,350.089C965.588,349.946 965.268,349.777 964.947,349.702C964.356,349.564 964.152,349.341 964.538,349.255C964.656,349.229 964.551,349.096 964.303,348.958C964.055,348.819 963.839,348.622 963.82,348.517C963.799,348.409 963.572,348.24 963.293,348.127C963.016,348.014 962.786,347.838 962.765,347.721C962.743,347.608 962.405,347.3 962.014,347.039C961.623,346.779 961.282,346.463 961.259,346.341C961.238,346.225 961.17,346.126 961.118,346.136C960.96,346.165 960.656,346.633 960.612,346.914C960.583,347.096 960.492,347.091 960.267,346.893C960.057,346.709 960.039,346.656 960.21,346.724C960.401,346.8 960.412,346.712 960.257,346.347C959.831,345.348 959.713,345.197 958.895,344.615C958.418,344.276 957.854,343.78 957.626,343.499C957.397,343.217 957.229,343.063 957.245,343.151C957.261,343.238 957.038,343.121 956.742,342.885C956.446,342.649 956.073,342.359 955.902,342.228C955.739,342.105 955.575,341.902 955.556,341.796C955.535,341.683 955.37,341.626 955.172,341.662C954.93,341.707 954.805,341.619 954.759,341.371C954.722,341.173 954.624,341.077 954.539,341.155C954.455,341.231 954.278,341.127 954.151,340.928C953.789,340.362 952.962,339.79 952.712,339.932C952.588,340.002 952.53,339.961 952.574,339.835C952.616,339.716 952.32,339.386 951.927,339.116C951.535,338.847 951.189,338.546 951.173,338.461C951.156,338.373 950.907,338.183 950.605,338.028C950.302,337.873 949.961,337.628 949.826,337.471C949.549,337.146 948.007,335.79 947.224,335.182C946.94,334.961 946.695,334.708 946.677,334.616C946.659,334.52 946.539,334.471 946.39,334.499C946.246,334.526 946.113,334.43 946.085,334.281C946.059,334.142 945.904,334.042 945.754,334.069C945.573,334.103 945.491,334.025 945.525,333.846C945.555,333.687 945.469,333.592 945.321,333.619C945.171,333.647 945.051,333.598 945.033,333.502C944.99,333.27 943.053,331.525 942.876,331.558C942.792,331.574 942.647,331.438 942.545,331.252C942.444,331.066 942.302,330.974 942.225,331.046C942.147,331.118 942.065,331.059 942.036,330.91C942.009,330.761 941.911,330.659 941.814,330.677C941.724,330.694 941.62,330.602 941.599,330.487C941.575,330.359 941.388,330.181 941.162,330.071C940.937,329.962 940.75,329.787 940.728,329.664C940.704,329.542 940.538,329.477 940.34,329.514C940.142,329.551 939.996,329.519 940.001,329.44C940.006,329.363 939.882,329.146 939.723,328.953C939.564,328.76 939.491,328.594 939.56,328.581C939.63,328.568 939.522,328.434 939.305,328.269C939.088,328.104 938.855,328.011 938.76,328.054C938.663,328.096 938.536,328.027 938.455,327.888C938.345,327.696 938.419,327.691 938.827,327.862C939.31,328.063 939.343,328.055 939.451,327.72C939.54,327.443 939.724,327.349 940.295,327.29C940.916,327.225 940.986,327.181 940.763,326.997C940.553,326.824 940.558,326.77 940.789,326.727C940.955,326.696 941.093,326.752 941.113,326.855C941.168,327.156 941.793,326.541 941.82,326.159C941.832,325.969 941.914,325.842 942,325.878C942.088,325.914 942.215,325.701 942.287,325.397C942.41,324.878 942.439,324.86 942.862,325.033C943.269,325.201 943.312,325.187 943.37,324.87C943.407,324.673 943.561,324.377 943.73,324.179C943.983,323.883 944.067,323.862 944.319,324.036C944.748,324.331 944.937,324.229 944.848,323.749C944.734,323.137 944.841,322.667 945.042,322.892C945.165,323.029 945.275,323.009 945.543,322.799C945.74,322.645 946.119,322.534 946.428,322.54C946.892,322.55 946.973,322.495 946.999,322.16C947.022,321.864 947.132,321.77 947.456,321.768C947.696,321.766 947.871,321.696 947.855,321.608C947.838,321.52 947.927,321.488 948.055,321.537C948.212,321.595 948.228,321.53 948.103,321.331C947.936,321.064 947.957,321.055 948.365,321.224C948.94,321.462 949.216,321.279 949.031,320.782C948.875,320.366 949.09,320.174 949.367,320.48C949.479,320.605 949.557,320.565 949.631,320.346C949.686,320.181 949.823,320.068 949.919,320.104C950.08,320.164 950.131,319.962 950.041,319.619C950.03,319.576 950.192,319.494 950.387,319.444C950.585,319.393 950.976,319.203 951.235,319.03C951.493,318.857 951.823,318.709 951.953,318.708C952.14,318.707 952.132,318.633 951.915,318.364C951.71,318.112 951.696,318.046 951.859,318.11C951.981,318.158 952.269,318.016 952.501,317.792C952.966,317.345 953.359,317.218 953.593,317.437C953.681,317.52 953.724,317.447 953.696,317.264C953.669,317.098 953.729,316.982 953.821,317.018C953.916,317.057 954.082,316.902 954.185,316.677C954.288,316.452 954.462,316.3 954.568,316.341C954.671,316.381 954.97,316.112 955.212,315.759C955.549,315.269 955.707,315.153 955.837,315.301C955.979,315.463 956.077,315.445 956.375,315.201C956.568,315.043 956.904,314.86 957.089,314.812C957.285,314.761 957.406,314.633 957.361,314.522C957.316,314.41 957.397,314.301 957.546,314.274C957.695,314.246 957.799,314.166 957.785,314.092C957.772,314.018 957.933,313.779 958.148,313.554C958.448,313.239 958.575,313.195 958.719,313.354C959.033,313.702 959.415,313.563 959.911,312.918C960.188,312.56 960.51,312.324 960.695,312.345C960.869,312.365 961.083,312.246 961.176,312.076C961.269,311.905 961.482,311.746 961.664,311.712C961.863,311.675 961.997,311.479 962.015,311.202C962.043,310.752 962.32,310.497 962.387,310.859C962.408,310.978 962.532,310.952 962.74,310.785C962.919,310.642 963.001,310.468 962.924,310.392C962.846,310.313 962.894,310.272 963.035,310.296C963.423,310.362 966.309,308.09 966.165,307.831C966.096,307.707 966.123,307.644 966.229,307.685C966.432,307.764 967.1,306.867 966.927,306.748C966.864,306.705 967.057,306.57 967.344,306.457C967.631,306.344 967.992,306.098 968.126,305.926C968.265,305.749 968.444,305.605 968.529,305.604C968.869,305.597 969.427,305.189 969.387,304.974C969.364,304.849 969.447,304.697 969.585,304.612C969.723,304.527 969.837,304.542 969.857,304.647C969.875,304.746 970.067,304.625 970.278,304.381C970.489,304.136 970.766,303.914 970.888,303.891C971.018,303.867 971.133,303.734 971.163,303.575C971.192,303.42 971.33,303.279 971.48,303.251C971.628,303.223 971.73,303.126 971.711,303.028C971.694,302.93 971.795,302.833 971.944,302.805C972.093,302.778 972.187,302.64 972.159,302.491C972.127,302.319 972.343,302.145 972.777,301.992C973.146,301.862 973.512,301.633 973.597,301.48C973.682,301.327 973.825,301.233 973.917,301.268C974.161,301.364 975.063,300.618 975.344,300.087C975.484,299.821 975.703,299.592 975.842,299.566C975.975,299.542 976.073,299.427 976.054,299.321C976.034,299.216 976.141,299.148 976.283,299.176C976.425,299.204 976.625,299.096 976.71,298.943C976.796,298.79 976.98,298.636 977.103,298.613C977.228,298.59 977.397,298.37 977.471,298.134C977.638,297.602 977.956,297.222 978.526,296.877C978.772,296.728 978.958,296.536 978.943,296.449C978.927,296.366 979.045,296.268 979.195,296.24C979.491,296.185 979.878,295.686 979.829,295.421C979.811,295.322 980.084,295.092 980.428,294.916C981.025,294.612 981.059,294.542 981.018,293.712C980.986,293.067 981.04,292.842 981.222,292.875C981.69,292.961 981.723,292.486 981.316,291.534Z" style="fill:rgb(8,29,96);fill-rule:nonzero;"/>
        </g>
        <g transform="matrix(4.16667,0,0,4.16667,0,0)">
            <path d="M910.4,352.278C910.264,352.468 910.281,352.563 910.476,352.692C910.669,352.819 910.711,352.759 910.653,352.445C910.594,352.131 910.533,352.091 910.4,352.278Z" style="fill:rgb(8,29,96);fill-rule:nonzero;"/>
        </g>
        <g transform="matrix(4.16667,0,0,4.16667,0,0)">
            <path d="M904.114,321.698C903.916,321.745 903.88,321.798 904.026,321.826C904.167,321.853 904.312,321.819 904.362,321.746C904.408,321.678 904.293,321.655 904.114,321.698Z" style="fill:rgb(8,29,96);fill-rule:nonzero;"/>
        </g>
        <g transform="matrix(4.16667,0,0,4.16667,0,0)">
            <path d="M901.418,355.879C901.317,355.838 901.199,355.895 901.159,356.005C901.117,356.118 901.201,356.185 901.35,356.157C901.648,356.102 901.676,355.985 901.418,355.879Z" style="fill:rgb(8,29,96);fill-rule:nonzero;"/>
        </g>
        <g transform="matrix(4.16667,0,0,4.16667,0,0)">
            <path d="M898.318,355.719L898.179,355.942C898.188,355.989 898.269,356.011 898.368,355.992C898.458,355.976 898.525,355.869 898.506,355.77C898.488,355.671 898.398,355.647 898.318,355.719Z" style="fill:rgb(8,29,96);fill-rule:nonzero;"/>
        </g>
        <g transform="matrix(4.16667,0,0,4.16667,0,0)">
            <path d="M897.043,356.598C896.948,356.615 896.885,356.713 896.904,356.812C896.922,356.911 897.007,356.93 897.091,356.854L897.231,356.64C897.223,356.597 897.143,356.579 897.043,356.598Z" style="fill:rgb(8,29,96);fill-rule:nonzero;"/>
        </g>
        <g transform="matrix(4.16667,0,0,4.16667,0,0)">
            <path d="M894.763,357.911C894.664,357.929 894.645,358.014 894.721,358.098L894.935,358.238C894.978,358.231 894.996,358.15 894.978,358.051C894.96,357.956 894.863,357.892 894.763,357.911Z" style="fill:rgb(8,29,96);fill-rule:nonzero;"/>
        </g>
        <g transform="matrix(4.16667,0,0,4.16667,0,0)">
            <path d="M894.293,361.138L894.155,361.361C894.163,361.407 894.244,361.429 894.344,361.411C894.435,361.394 894.5,361.288 894.482,361.188C894.464,361.089 894.373,361.065 894.293,361.138Z" style="fill:rgb(8,29,96);fill-rule:nonzero;"/>
        </g>
        <g transform="matrix(4.16667,0,0,4.16667,0,0)">
            <path d="M893.758,359.175C893.663,359.193 893.599,359.291 893.617,359.39C893.636,359.489 893.722,359.508 893.805,359.432L893.946,359.218C893.938,359.175 893.857,359.157 893.758,359.175Z" style="fill:rgb(8,29,96);fill-rule:nonzero;"/>
        </g>
        <g transform="matrix(4.16667,0,0,4.16667,0,0)">
            <path d="M893.752,360.16C893.652,360.121 893.575,360.176 893.594,360.276C893.613,360.375 893.712,360.45 893.803,360.433C893.903,360.415 893.97,360.365 893.961,360.319C893.952,360.271 893.864,360.203 893.752,360.16Z" style="fill:rgb(8,29,96);fill-rule:nonzero;"/>
        </g>
        <g transform="matrix(4.16667,0,0,4.16667,0,0)">
            <path d="M891.484,361.395C891.384,361.413 891.278,361.509 891.235,361.62C891.192,361.731 891.234,361.8 891.333,361.782C891.432,361.763 891.539,361.667 891.582,361.556C891.625,361.445 891.582,361.376 891.484,361.395Z" style="fill:rgb(8,29,96);fill-rule:nonzero;"/>
        </g>
        <g transform="matrix(4.16667,0,0,4.16667,0,0)">
            <path d="M890.783,361.311C890.758,361.435 890.795,361.593 890.862,361.638C890.932,361.687 890.954,361.578 890.911,361.398C890.865,361.201 890.814,361.167 890.783,361.311Z" style="fill:rgb(8,29,96);fill-rule:nonzero;"/>
        </g>
        <g transform="matrix(4.16667,0,0,4.16667,0,0)">
            <path d="M890.176,359.806C889.999,359.684 889.419,359.998 889.456,360.197C889.472,360.285 889.595,360.299 889.718,360.225C889.876,360.131 889.932,360.185 889.896,360.398C889.865,360.574 889.799,360.755 889.742,360.818C889.558,361.024 889.301,362.125 889.418,362.206C889.594,362.326 889.933,361.837 889.785,361.675C889.714,361.597 889.803,361.296 889.979,361.024C890.293,360.538 890.388,359.954 890.176,359.806Z" style="fill:rgb(8,29,96);fill-rule:nonzero;"/>
        </g>
        <g transform="matrix(4.16667,0,0,4.16667,0,0)">
            <path d="M889.478,359.346C889.39,359.426 889.338,359.56 889.356,359.659C889.374,359.758 889.454,359.773 889.542,359.693C889.63,359.613 889.682,359.479 889.663,359.38C889.645,359.28 889.566,359.266 889.478,359.346Z" style="fill:rgb(8,29,96);fill-rule:nonzero;"/>
        </g>
        <g transform="matrix(4.16667,0,0,4.16667,0,0)">
            <path d="M888.595,362.376C888.377,362.295 888.229,362.769 888.383,363.048C888.437,363.146 888.542,363.053 888.628,362.832C888.721,362.592 888.708,362.418 888.595,362.376Z" style="fill:rgb(8,29,96);fill-rule:nonzero;"/>
        </g>
        <g transform="matrix(4.16667,0,0,4.16667,0,0)">
            <path d="M888.07,363.372C887.982,363.451 887.93,363.586 887.948,363.685C887.966,363.784 888.046,363.799 888.134,363.719C888.222,363.639 888.274,363.505 888.255,363.405C888.237,363.306 888.157,363.292 888.07,363.372Z" style="fill:rgb(8,29,96);fill-rule:nonzero;"/>
        </g>
        <g transform="matrix(4.16667,0,0,4.16667,0,0)">
            <path d="M887.468,361.654C887.129,361.762 886.994,362.416 887.324,362.355C887.421,362.337 887.485,362.205 887.46,362.073C887.436,361.941 887.506,361.76 887.611,361.686C887.723,361.606 887.662,361.593 887.468,361.654Z" style="fill:rgb(8,29,96);fill-rule:nonzero;"/>
        </g>
        <g transform="matrix(4.16667,0,0,4.16667,0,0)">
            <path d="M887.278,362.654C887.092,362.527 886.674,362.63 886.704,362.795C886.719,362.871 886.88,362.909 887.08,362.884C887.448,362.84 887.486,362.797 887.278,362.654Z" style="fill:rgb(8,29,96);fill-rule:nonzero;"/>
        </g>
        <g transform="matrix(4.16667,0,0,4.16667,0,0)">
            <path d="M885.832,356.164C885.584,356.211 885.575,356.707 885.822,356.75C885.951,356.774 886.036,356.649 886.017,356.464C885.997,356.279 885.916,356.149 885.832,356.164Z" style="fill:rgb(8,29,96);fill-rule:nonzero;"/>
        </g>
        <g transform="matrix(4.16667,0,0,4.16667,0,0)">
            <path d="M887.308,364.154C887.209,364.173 887.147,364.254 887.163,364.344C887.18,364.434 887.276,364.533 887.386,364.576C887.495,364.619 887.559,364.536 887.531,364.387C887.503,364.238 887.406,364.136 887.308,364.154Z" style="fill:rgb(8,29,96);fill-rule:nonzero;"/>
        </g>
        <g transform="matrix(4.16667,0,0,4.16667,0,0)">
            <path d="M885.84,357.772C885.692,357.799 885.579,357.716 885.602,357.593C885.658,357.292 885.137,356.935 885.032,357.203C884.889,357.572 885.777,358.405 886.049,358.157C886.256,357.968 886.121,357.719 885.84,357.772Z" style="fill:rgb(8,29,96);fill-rule:nonzero;"/>
        </g>
        <g transform="matrix(4.16667,0,0,4.16667,0,0)">
            <path d="M886.199,363.009C886.086,363.526 886.117,363.697 886.295,363.536C886.386,363.453 886.418,363.225 886.368,363.012C886.285,362.651 886.278,362.651 886.199,363.009Z" style="fill:rgb(8,29,96);fill-rule:nonzero;"/>
        </g>
        <g transform="matrix(4.16667,0,0,4.16667,0,0)">
            <path d="M885.01,357.814C884.863,357.756 884.845,357.82 884.958,358.004C885.111,358.25 884.898,358.411 884.405,358.425C884.102,358.432 884.361,358.739 884.69,358.763C884.933,358.781 885.09,358.675 885.163,358.445C885.306,357.99 885.289,357.923 885.01,357.814Z" style="fill:rgb(8,29,96);fill-rule:nonzero;"/>
        </g>
        <g transform="matrix(4.16667,0,0,4.16667,0,0)">
            <path d="M885.857,361.866C885.83,361.991 885.868,362.149 885.935,362.194C886.004,362.242 886.027,362.134 885.984,361.954C885.937,361.757 885.886,361.722 885.857,361.866Z" style="fill:rgb(8,29,96);fill-rule:nonzero;"/>
        </g>
        <g transform="matrix(4.16667,0,0,4.16667,0,0)">
            <path d="M885.258,362.191C885.11,362.219 884.997,362.344 885.02,362.458C885.074,362.738 885.506,363.195 885.46,362.924C885.441,362.815 885.451,362.592 885.483,362.432C885.519,362.242 885.44,362.157 885.258,362.191Z" style="fill:rgb(8,29,96);fill-rule:nonzero;"/>
        </g>
        <g transform="matrix(4.16667,0,0,4.16667,0,0)">
            <path d="M885.672,364.005C885.584,364.085 885.531,364.216 885.549,364.31C885.567,364.404 885.654,364.462 885.753,364.443C885.848,364.426 885.904,364.287 885.876,364.138C885.849,363.989 885.756,363.929 885.672,364.005Z" style="fill:rgb(8,29,96);fill-rule:nonzero;"/>
        </g>
        <g transform="matrix(4.16667,0,0,4.16667,0,0)">
            <path d="M884.36,359.689C884.138,359.288 884.029,359.562 884.146,360.225C884.24,360.755 884.313,360.867 884.45,360.698C884.618,360.491 884.583,360.092 884.36,359.689Z" style="fill:rgb(8,29,96);fill-rule:nonzero;"/>
        </g>
        <g transform="matrix(4.16667,0,0,4.16667,0,0)">
            <path d="M884.915,362.88C884.827,362.959 884.776,363.093 884.794,363.193C884.813,363.292 884.892,363.306 884.98,363.227C885.068,363.147 885.119,363.012 885.101,362.913C885.082,362.814 885.003,362.8 884.915,362.88Z" style="fill:rgb(8,29,96);fill-rule:nonzero;"/>
        </g>
        <g transform="matrix(4.16667,0,0,4.16667,0,0)">
            <path d="M885.095,365.404C884.898,365.266 884.66,365.331 884.695,365.513C884.71,365.596 884.846,365.686 885.006,365.717C885.29,365.773 885.345,365.579 885.095,365.404Z" style="fill:rgb(8,29,96);fill-rule:nonzero;"/>
        </g>
        <g transform="matrix(4.16667,0,0,4.16667,0,0)">
            <path d="M883.869,360.331C883.521,360.097 883.274,360.181 883.453,360.473C883.634,360.765 882.985,361.248 882.75,360.997C882.667,360.908 882.579,360.935 882.526,361.065C882.479,361.176 882.516,361.263 882.602,361.247C882.69,361.231 882.842,361.34 882.927,361.478C883.039,361.662 883.011,361.723 882.828,361.684C882.689,361.655 882.448,361.758 882.306,361.91C882.091,362.137 882.088,362.209 882.29,362.289C882.456,362.355 882.488,362.329 882.381,362.212C882.223,362.037 882.418,361.919 882.91,361.894C883.039,361.887 883.158,361.709 883.172,361.501C883.201,361.05 883.452,360.991 883.859,361.339C884.128,361.57 884.141,361.552 884.001,361.133C883.914,360.875 883.907,360.636 883.985,360.589C884.06,360.542 884.006,360.424 883.869,360.331Z" style="fill:rgb(8,29,96);fill-rule:nonzero;"/>
        </g>
        <g transform="matrix(4.16667,0,0,4.16667,0,0)">
            <path d="M884.22,361.854C884.138,361.869 883.955,362.082 883.813,362.331C883.56,362.772 883.561,362.774 883.853,362.409C884.02,362.202 884.216,362.078 884.297,362.13C884.382,362.184 884.427,362.14 884.406,362.025C884.384,361.909 884.307,361.838 884.22,361.854Z" style="fill:rgb(8,29,96);fill-rule:nonzero;"/>
        </g>
        <g transform="matrix(4.16667,0,0,4.16667,0,0)">
            <path d="M883.983,364.584C883.888,364.602 883.824,364.699 883.843,364.798C883.862,364.897 883.947,364.917 884.031,364.841L884.17,364.626C884.162,364.584 884.082,364.566 883.983,364.584Z" style="fill:rgb(8,29,96);fill-rule:nonzero;"/>
        </g>
        <g transform="matrix(4.16667,0,0,4.16667,0,0)">
            <path d="M884.15,366.957C884.029,367.133 883.95,367.313 883.964,367.385C883.978,367.457 884.077,367.395 884.202,367.238C884.326,367.081 884.405,366.901 884.388,366.81C884.37,366.719 884.271,366.78 884.15,366.957Z" style="fill:rgb(8,29,96);fill-rule:nonzero;"/>
        </g>
        <g transform="matrix(4.16667,0,0,4.16667,0,0)">
            <path d="M883.226,362.21C883.119,362.229 882.977,362.367 882.884,362.538C882.753,362.781 882.652,362.805 882.302,362.672C881.927,362.529 881.831,362.578 881.464,363.092L881.051,363.674L881.746,363.276C882.474,362.86 882.79,362.864 882.501,363.285C882.406,363.422 882.353,363.589 882.37,363.686C882.387,363.775 882.546,363.619 882.716,363.348C883.275,362.457 883.4,362.177 883.226,362.21Z" style="fill:rgb(8,29,96);fill-rule:nonzero;"/>
        </g>
        <g transform="matrix(4.16667,0,0,4.16667,0,0)">
            <path d="M883.205,363.484C882.819,363.797 882.742,364.102 883.005,364.286C883.29,364.486 883.577,364.112 883.525,363.608C883.495,363.323 883.434,363.299 883.205,363.484Z" style="fill:rgb(8,29,96);fill-rule:nonzero;"/>
        </g>
        <g transform="matrix(4.16667,0,0,4.16667,0,0)">
            <path d="M883.657,365.363C883.508,365.391 883.453,365.479 883.532,365.566L883.819,365.587C884.023,365.402 883.954,365.308 883.657,365.363Z" style="fill:rgb(8,29,96);fill-rule:nonzero;"/>
        </g>
        <g transform="matrix(4.16667,0,0,4.16667,0,0)">
            <path d="M882.706,364.39C882.591,364.345 882.432,364.547 882.339,364.855C882.181,365.381 882.188,365.396 882.551,365.301C882.943,365.2 883.058,364.527 882.706,364.39Z" style="fill:rgb(8,29,96);fill-rule:nonzero;"/>
        </g>
        <g transform="matrix(4.16667,0,0,4.16667,0,0)">
            <path d="M882.902,366.41C882.812,366.427 882.724,366.546 882.697,366.688C882.671,366.821 882.765,366.915 882.897,366.89C883.03,366.865 883.125,366.736 883.102,366.612C883.077,366.48 882.991,366.393 882.902,366.41Z" style="fill:rgb(8,29,96);fill-rule:nonzero;"/>
        </g>
        <g transform="matrix(4.16667,0,0,4.16667,0,0)">
            <path d="M882.29,367.447C882.081,367.614 882.041,367.728 882.184,367.75C882.307,367.768 882.375,367.878 882.33,367.987C882.286,368.099 882.323,368.127 882.41,368.05C882.503,367.969 882.584,367.752 882.599,367.544C882.622,367.22 882.588,367.21 882.29,367.447Z" style="fill:rgb(8,29,96);fill-rule:nonzero;"/>
        </g>
        <g transform="matrix(4.16667,0,0,4.16667,0,0)">
            <path d="M881.717,364.589C881.455,364.748 881.449,365.054 881.708,365.006C881.788,364.991 881.878,364.855 881.903,364.714C881.932,364.537 881.87,364.495 881.717,364.589Z" style="fill:rgb(8,29,96);fill-rule:nonzero;"/>
        </g>
        <g transform="matrix(4.16667,0,0,4.16667,0,0)">
            <path d="M881.476,363.706C881.388,363.786 881.335,363.917 881.353,364.011C881.37,364.106 881.458,364.163 881.557,364.145C881.652,364.127 881.708,363.988 881.68,363.84C881.653,363.691 881.56,363.63 881.476,363.706Z" style="fill:rgb(8,29,96);fill-rule:nonzero;"/>
        </g>
        <g transform="matrix(4.16667,0,0,4.16667,0,0)">
            <path d="M881.576,367.101C881.459,366.918 881.398,366.705 881.433,366.606C881.469,366.505 881.421,366.499 881.319,366.593C881.226,366.679 881.165,366.869 881.19,367.002C881.214,367.134 881.17,367.262 881.095,367.276C881.02,367.29 880.984,367.459 881.018,367.641C881.073,367.939 881.109,367.943 881.314,367.672C881.438,367.508 881.613,367.407 881.685,367.457C881.862,367.579 881.842,367.514 881.576,367.101Z" style="fill:rgb(8,29,96);fill-rule:nonzero;"/>
        </g>
        <g transform="matrix(4.16667,0,0,4.16667,0,0)">
            <path d="M880.846,364.183C880.74,364.142 880.667,364.19 880.686,364.289C880.704,364.389 880.798,364.457 880.893,364.439C880.992,364.421 881.061,364.375 881.053,364.332C881.045,364.29 880.956,364.226 880.846,364.183Z" style="fill:rgb(8,29,96);fill-rule:nonzero;"/>
        </g>
        <g transform="matrix(4.16667,0,0,4.16667,0,0)">
            <path d="M880.737,364.656C880.371,364.724 880.365,364.742 880.587,365.112C880.798,365.463 881.004,365.394 881.039,364.96C881.061,364.682 880.989,364.61 880.737,364.656Z" style="fill:rgb(8,29,96);fill-rule:nonzero;"/>
        </g>
        <g transform="matrix(4.16667,0,0,4.16667,0,0)">
            <path d="M881.003,365.95C880.901,365.91 880.834,366.007 880.862,366.156C880.889,366.305 880.986,366.371 881.068,366.298L881.208,366.092C881.201,366.054 881.114,365.993 881.003,365.95Z" style="fill:rgb(8,29,96);fill-rule:nonzero;"/>
        </g>
        <g transform="matrix(4.16667,0,0,4.16667,0,0)">
            <path d="M879.285,367.852C879.148,367.937 879.029,367.894 879.001,367.75C878.975,367.606 879.063,367.482 879.212,367.455C879.361,367.427 879.48,367.469 879.496,367.556C879.512,367.642 879.424,367.766 879.285,367.852ZM880.136,365.658C879.98,365.687 879.948,365.804 880.049,365.973C880.141,366.127 880.131,366.212 880.026,366.171C879.759,366.067 879.315,366.837 879.515,367.056C879.614,367.164 879.583,367.197 879.436,367.141C879.127,367.024 878.764,367.487 878.841,367.9C878.911,368.276 878.981,368.283 879.399,367.952C879.652,367.751 879.721,367.755 879.761,367.968C879.788,368.117 879.734,368.247 879.636,368.266C879.535,368.284 879.478,368.381 879.499,368.496C879.525,368.633 879.606,368.607 879.758,368.414C879.881,368.258 879.93,367.937 879.866,367.693C879.658,366.876 879.679,366.649 879.968,366.596C880.168,366.558 880.241,366.648 880.223,366.908C880.207,367.116 880.252,367.261 880.328,367.247C880.595,367.198 880.623,366.953 880.396,366.67C880.252,366.491 880.228,366.334 880.329,366.242C880.56,366.034 880.417,365.606 880.136,365.658Z" style="fill:rgb(8,29,96);fill-rule:nonzero;"/>
        </g>
        <g transform="matrix(4.16667,0,0,4.16667,0,0)">
            <path d="M880.452,368.371C880.281,368.214 880.157,368.172 880.177,368.276C880.197,368.378 880.347,368.544 880.5,368.633C880.877,368.851 880.857,368.74 880.452,368.371Z" style="fill:rgb(8,29,96);fill-rule:nonzero;"/>
        </g>
        <g transform="matrix(4.16667,0,0,4.16667,0,0)">
            <path d="M879.169,368.883C878.952,368.914 878.854,368.882 878.959,368.814C879.271,368.615 879.132,368.359 878.751,368.43C878.338,368.507 878.355,368.735 878.796,369.038C879.168,369.294 879.397,369.284 879.505,369.008C879.543,368.911 879.386,368.852 879.169,368.883Z" style="fill:rgb(8,29,96);fill-rule:nonzero;"/>
        </g>
        <g transform="matrix(4.16667,0,0,4.16667,0,0)">
            <path d="M878.371,368.963C878.229,368.865 877.852,369.299 877.892,369.513C877.906,369.593 878.035,369.641 878.167,369.616C878.432,369.567 878.576,369.104 878.371,368.963Z" style="fill:rgb(8,29,96);fill-rule:nonzero;"/>
        </g>
        <g transform="matrix(4.16667,0,0,4.16667,0,0)">
            <path d="M878.348,370.267C878.256,370.408 878.049,370.545 877.884,370.576C877.487,370.65 877.338,371.009 877.624,371.206C877.777,371.31 877.949,371.204 878.208,370.849C878.413,370.569 878.563,370.271 878.546,370.179C878.53,370.09 878.438,370.131 878.348,370.267Z" style="fill:rgb(8,29,96);fill-rule:nonzero;"/>
        </g>
        <g transform="matrix(4.16667,0,0,4.16667,0,0)">
            <path d="M877.115,371.549C876.966,371.525 876.73,371.697 876.595,371.927C876.382,372.292 876.384,372.329 876.611,372.196C876.966,371.989 877.158,372.139 876.967,372.474C876.859,372.665 876.741,372.702 876.558,372.601C876.366,372.497 876.29,372.557 876.259,372.837C876.236,373.046 876.145,373.226 876.052,373.243C875.96,373.26 875.923,373.446 875.967,373.661C876.038,374.002 876.069,373.976 876.224,373.433C876.396,372.837 876.711,372.535 876.69,372.987C876.684,373.109 876.744,373.223 876.821,373.237L876.947,373.128C876.938,373.056 877.033,372.83 877.155,372.636C877.276,372.443 877.316,372.235 877.241,372.184C877.167,372.133 877.169,371.974 877.246,371.841C877.347,371.664 877.309,371.579 877.115,371.549Z" style="fill:rgb(8,29,96);fill-rule:nonzero;"/>
        </g>
        <g transform="matrix(4.16667,0,0,4.16667,0,0)">
            <path d="M876.299,374.112C876.102,374.154 876.066,374.202 876.21,374.232C876.334,374.258 876.493,374.224 876.539,374.162C876.588,374.096 876.481,374.074 876.299,374.112Z" style="fill:rgb(8,29,96);fill-rule:nonzero;"/>
        </g>
        <g transform="matrix(4.16667,0,0,4.16667,0,0)">
            <path d="M875.663,374.649C875.385,374.741 875.041,375.398 875.098,375.73C875.12,375.865 875.237,375.901 875.375,375.816C875.513,375.73 875.626,375.741 875.645,375.842C875.663,375.942 875.752,376.002 875.851,375.984C875.95,375.965 875.997,375.802 875.96,375.604C875.923,375.405 875.822,375.271 875.722,375.289C875.62,375.308 875.533,375.238 875.511,375.123C875.49,375.009 875.581,374.945 875.723,374.972C875.865,375 875.953,374.925 875.93,374.797C875.906,374.669 875.792,374.606 875.663,374.649Z" style="fill:rgb(8,29,96);fill-rule:nonzero;"/>
        </g>
        <g transform="matrix(4.16667,0,0,4.16667,0,0)">
            <path d="M874.817,377.784C874.602,377.824 874.564,377.774 874.669,377.589C874.75,377.447 874.819,377.185 874.829,376.977C874.841,376.743 874.893,376.812 874.977,377.173C875.072,377.583 875.03,377.744 874.817,377.784ZM874.982,375.957C874.883,375.975 874.674,376.442 874.523,376.983C874.371,377.525 874.097,378.248 873.92,378.575C873.62,379.127 873.621,379.198 873.924,379.472C874.253,379.771 874.253,379.771 874.078,379.427C873.943,379.161 873.98,379.046 874.24,378.918C874.428,378.825 874.553,378.689 874.523,378.609C874.402,378.289 874.435,378.015 874.588,378.074C874.676,378.108 874.867,378.012 874.995,377.87C875.265,377.571 875.253,375.906 874.982,375.957Z" style="fill:rgb(8,29,96);fill-rule:nonzero;"/>
        </g>
        <g transform="matrix(4.16667,0,0,4.16667,0,0)">
            <path d="M873.53,379.606C873.504,379.73 873.541,379.888 873.608,379.933C873.678,379.982 873.699,379.873 873.656,379.693C873.611,379.497 873.559,379.462 873.53,379.606Z" style="fill:rgb(8,29,96);fill-rule:nonzero;"/>
        </g>
    </g>
</svg>
